<?xml version="1.0" encoding="UTF-8"?><svg id="Layer_2" xmlns="http://www.w3.org/2000/svg" viewBox="0 0 84.06 187.36"><defs><style>.cls-1{fill:#bb5366;}.cls-2{fill:#444c58;}.cls-3{fill:#95639b;}</style></defs><g id="Layer_1-2"><path class="cls-3" d="m33.31,134.2c.71-.68.3-1.87-.67-1.96-6.79-.6-25.62-.62-31.76,16.46-5.79,16.09,18.74,32,30.49,38.54.9.5,1.82-.63,1.14-1.41-7.99-9.14-20.99-30.75.81-51.63Z"/><path class="cls-3" d="m30.79,59.57c-6.76-14.51,10.98-15.53,27.09-15.6,1.23,0,1.8-1.54.86-2.34L10.39.33c-1.02-.87-2.55.15-2.13,1.43,3.8,11.59,12.87,34.06,12.75,51.25-.13,18.64-10,31.71-13.91,39.2-.53,1.01.38,2.17,1.49,1.91,19.93-4.67,30.53-22.26,22.29-34.36-.04-.06-.08-.12-.1-.18Z"/><path class="cls-2" d="m82.7,158.76c-15.83-17.5-21.6-13.01-36.05-23.84-1.06-.79-2.54-.72-3.53.16-15.93,14.36-17.97,21.36-13.43,32.1.82,1.93,1.51,1.81,1.59-.28.19-4.97.05-9.75,9.94-14.7,19.57-9.79,41.79,9.07,41.47,6.56Z"/><path class="cls-1" d="m74.8,142.32c1.15-.19,1.6-1.6.76-2.41-12.6-12.14-28.66-25.9-31.58-47.97-2.5-18.93,9.35-32.91,17.51-40.12,2.18-1.92.75-5.49-2.16-5.41-14.2.42-27.25,2.73-21.31,15.5.03.07.07.14.11.2,7.93,11.67-1.63,28.44-20.19,33.81-1.93.56-2.46,3.04-.94,4.35l33.16,28.77c10.29,8.22,16.25,8.71,23.7,13.09.28.16.61.23.93.18h0Z"/><circle class="cls-2" cx="75.25" cy="101.65" r="8.8"/></g></svg>