<?xml version="1.0" encoding="UTF-8"?><svg id="Layer_2" xmlns="http://www.w3.org/2000/svg" viewBox="0 0 669.02 187.36"><defs><style>.cls-1{fill:#bb5366;}.cls-2{fill:#444c58;}.cls-3{fill:#95639b;}.cls-4{fill:#4c555d;}</style></defs><g id="Layer_1-2"><g><path class="cls-4" d="m171.19,84.47c-.54-3.01-.97-5.8-1.61-8.38-1.29-5.05,1.83-10.32,6.56-10.96,5.8-.97,9.67,2.69,11.29,15.69,9.03.32,17.2,4.84,20.85,13.44,2.15,4.84,2.47,9.35,1.94,13.44-2.26,15.37-20,23.22-24.94,14.3-2.79,10.1-7.85,16.77-16.55,11.61,3.98-3.98,5.05-18.92,4.19-33.86-5.91,3.33-10.86,8.6-13.22,12.9-2.37,3.87-6.23,5.05-8.92,2.9,2.26-4.08-1.7-21.49-5.46-28.05-.97-1.64-2.02-1.01-2.54-1.47-.43-.38.61-.9,1.35-1.22.97-.42,3.14-1.31,4.07-1.72,4.84-2.15,9.14,2.69,11.82,11.29,3.01-4.3,6.88-7.63,11.18-9.89Zm14.73,35.04c11.18-1.18,13.22-18.92,2.26-22.36,0,7.42-.75,15.69-2.26,22.36Z"/><path class="cls-4" d="m321.75,112.15c-2.15,18.04-13.17,23.37-23.39,23.37-11.72,0-18.6-3.98-17.63-14.19.75-6.99,8.49-11.07,13.54-11.07s8.6,1.18,11.18,3.65c.86-8.17-8.17-15.8-27.63-5.16-2.69-9.89,17.11-23.73,20.77-35.01h-2.58c-4.41,0-7.52.43-9.35.65-1.18.21-2.15-.43-2.47-1.5-.64-1.61.65-3.23,2.26-3.12,2.04.11,5.16.43,9.57.43,1.5,0,2.9,0,4.08-.21,2.04-2.9,4.95-4.3,8.49-3.66,4.95.54,8.92,4.73,7.09,9.35-3.22,9.35-14.75,16.08-15.61,20.17,19.36,1.8,22.1,12.66,21.67,16.3Zm-22.53,8.65c-1.18-2.15-3.65-2.69-5.59-1.29-1.93,1.29-2.69,3.33-1.18,5.7,1.4,2.26,3.66,2.58,5.7,1.29,2.04-1.29,2.58-3.44,1.07-5.7Z"/><path class="cls-4" d="m378.23,111.99c8.6-10.21,12.9-22.68,10.96-31.28,9.24-2.58,21.93,14.19,3.33,39.24-3.55,5.05-9.03,6.34-12.79,3.55s-4.3-8.28-1.5-11.5Zm54.29-40.85c-1.29,7.53-2.15,19.13,9.89,43.64,2.15,4.3.75,10-3.98,12.04-6.88,3.22-12.79-4.41-16.99-16.88-7.74-23.33-.97-40.53,11.07-38.81Zm9.46,17.09c-2.79,0-4.73-1.61-4.73-4.73s1.93-4.84,4.73-4.84,4.84,1.61,4.84,4.84-1.94,4.73-4.84,4.73Zm16.12-1.94c0,3.22-1.94,4.84-4.84,4.84s-4.84-1.61-4.84-4.84c0-3.01,2.04-4.73,4.84-4.73s4.84,1.72,4.84,4.73Z"/><path class="cls-4" d="m566.03,94.03c.54,11.07-13.65,29.88-36.33,35.58-12.58,3.22-22.25,2.69-23.22-5.16-.75-4.95,3.12-9.35,7.85-9.89,28.27-2.69,42.14-19.78,43.21-28.38,5.38.32,8.17,3.44,8.49,7.85Zm-59.34-18.71c1.93-6.02,11.18-7.31,20.53-.21,9.25,6.88,5.38,19.13-.75,19.13-1.61-4.73-5.48-7.96-13.76-9.57-4.3-.86-7.31-5.38-6.02-9.35Z"/><path class="cls-4" d="m647.62,109.94c-4.19-1.93-7.09-4.62-9.35-7.42v26.55c0,4.84-2.79,7.2-7.09,7.2s-7.31-2.36-7.31-7.2v-58.59c0-3.12-2.15-3.98-2.58-5.16-.54-1.08.43-2.26,1.72-2.26,1.83.11,3.76.21,8.17.21s7.09,2.47,7.09,7.2v17.63c3.76,5.81,13.33,9.03,20.96,8.39,3.76-.22,7.52,3.12,7.31,7.52-.11,6.24-9.25,10-18.92,5.91Zm5.38-23.43c-2.69,0-4.73-1.83-4.73-5.05s2.04-4.84,4.73-4.84,4.84,1.72,4.84,4.84-2.04,5.05-4.84,5.05Zm11.39,2.69c-2.9,0-4.84-1.5-4.84-4.84,0-3.12,1.93-4.73,4.84-4.73,2.69,0,4.62,1.61,4.62,4.73,0,3.33-1.94,4.84-4.62,4.84Z"/></g><path class="cls-3" d="m33.31,134.2c.71-.68.3-1.87-.67-1.96-6.79-.6-25.62-.62-31.76,16.46-5.79,16.09,18.74,32,30.49,38.54.9.5,1.82-.63,1.14-1.41-7.99-9.14-20.99-30.75.81-51.63Z"/><path class="cls-3" d="m30.79,59.57c-6.76-14.51,10.98-15.53,27.09-15.6,1.23,0,1.8-1.54.86-2.34L10.39.33c-1.02-.87-2.55.15-2.13,1.43,3.8,11.59,12.87,34.06,12.75,51.25-.13,18.64-10,31.71-13.91,39.2-.53,1.01.38,2.17,1.49,1.91,19.93-4.67,30.53-22.26,22.29-34.36-.04-.06-.08-.12-.1-.18Z"/><path class="cls-2" d="m82.7,158.76c-15.83-17.5-21.6-13.01-36.05-23.84-1.06-.79-2.54-.72-3.53.16-15.93,14.36-17.97,21.36-13.43,32.1.82,1.93,1.51,1.81,1.59-.28.19-4.97.05-9.75,9.94-14.7,19.57-9.79,41.79,9.07,41.47,6.56Z"/><path class="cls-1" d="m74.8,142.32c1.15-.19,1.6-1.6.76-2.41-12.6-12.14-28.66-25.9-31.58-47.97-2.5-18.93,9.35-32.91,17.51-40.12,2.18-1.92.75-5.49-2.16-5.41-14.2.42-27.25,2.73-21.31,15.5.03.07.07.14.11.2,7.93,11.67-1.63,28.44-20.19,33.81-1.93.56-2.46,3.04-.94,4.35l33.16,28.77c10.29,8.22,16.25,8.71,23.7,13.09.28.16.61.23.93.18h0Z"/><circle class="cls-2" cx="75.25" cy="101.65" r="8.8"/></g></svg>